<svg width="40" height="37" viewBox="0 0 40 37" fill="none" xmlns="http://www.w3.org/2000/svg">
<path d="M32.4752 0H2.46181C1.10438 0 0 1.10438 0 2.46182V27.4729C0 28.8304 1.10438 29.9347 2.46181 29.9347H22.119C22.4426 29.9347 22.7049 29.6723 22.7049 29.3487C22.7049 29.0251 22.4426 28.7628 22.119 28.7628H19.9302V24.9718C19.9302 23.9748 19.3356 23.0828 18.4153 22.6995L15.337 21.4168C15.0885 21.3133 14.928 21.0725 14.928 20.8034V19.8885C15.7168 19.0862 16.1786 17.9938 16.1786 16.8433V14.3421C16.1786 12.2952 14.2327 10.6298 11.8409 10.6298C9.44921 10.6298 7.50334 12.2951 7.50334 14.3421V16.8433C7.50334 17.9937 7.96506 19.0862 8.75389 19.8885V20.8034C8.75389 21.0725 8.59334 21.3133 8.3449 21.4169L5.26668 22.6995C4.34636 23.0829 3.75167 23.9749 3.75167 24.9719V28.7629H2.46181C1.75056 28.7629 1.17188 28.1842 1.17188 27.473V7.42466H33.765V17.1558C33.765 17.4794 34.0274 17.7418 34.351 17.7418C34.6746 17.7418 34.9369 17.4794 34.9369 17.1558V2.46182C34.9369 1.10438 33.8326 0 32.4752 0ZM4.92355 24.9718C4.92355 24.4494 5.23512 23.9821 5.71739 23.7811L8.79569 22.4985C9.48218 22.2125 9.92578 21.5471 9.92578 20.8034V20.6764C10.1409 20.6902 10.3555 20.585 10.4709 20.3859C10.633 20.1058 10.5374 19.7473 10.2574 19.5851C9.28155 19.0201 8.6753 17.9695 8.6753 16.8433V14.3422C8.6753 12.9414 10.0955 11.8017 11.841 11.8017C13.5866 11.8017 15.0068 12.9413 15.0068 14.3422V16.8433C15.0068 17.97 14.4001 19.0208 13.4236 19.5858C13.1435 19.7479 13.0478 20.1063 13.2099 20.3865C13.3185 20.5742 13.5153 20.6791 13.7176 20.6791C13.7305 20.6791 13.7434 20.6775 13.7563 20.6766V20.8035C13.7563 21.5473 14.1999 22.2127 14.8864 22.4987L17.9647 23.7813C18.4469 23.9822 18.7585 24.4496 18.7585 24.972V28.7629H4.92355V24.9718ZM33.765 6.25278H1.17188V2.46182C1.17188 1.75056 1.75056 1.17188 2.46181 1.17188H32.4752C33.1864 1.17188 33.765 1.75056 33.765 2.46182V6.25278Z" fill="#FED100"/>
<path d="M3.09297 3.1265H3.08672C2.76313 3.1265 2.50391 3.38884 2.50391 3.71244C2.50391 4.03603 2.76938 4.29838 3.09297 4.29838C3.41657 4.29838 3.67892 4.03603 3.67892 3.71244C3.67892 3.38884 3.41657 3.1265 3.09297 3.1265Z" fill="#FED100"/>
<path d="M6.83907 3.1265H6.83282C6.50922 3.1265 6.25 3.38884 6.25 3.71244C6.25 4.03603 6.51547 4.29838 6.83907 4.29838C7.16266 4.29838 7.42501 4.03603 7.42501 3.71244C7.42501 3.38884 7.16266 3.1265 6.83907 3.1265Z" fill="#FED100"/>
<path d="M4.96309 3.1265H4.95684C4.63324 3.1265 4.37402 3.38884 4.37402 3.71244C4.37402 4.03603 4.63949 4.29838 4.96309 4.29838C5.28669 4.29838 5.54903 4.03603 5.54903 3.71244C5.54903 3.38884 5.28669 3.1265 4.96309 3.1265Z" fill="#FED100"/>
<path d="M31.8499 3.1265H9.33985C9.01625 3.1265 8.75391 3.38884 8.75391 3.71244C8.75391 4.03603 9.01625 4.29838 9.33985 4.29838H31.8499C32.1735 4.29838 32.4358 4.03603 32.4358 3.71244C32.4358 3.38884 32.1735 3.1265 31.8499 3.1265Z" fill="#FED100"/>
<path d="M39.6064 21.1018L31.1652 18.1657C31.0405 18.1222 30.9049 18.1222 30.7802 18.1657L24.7099 20.277C24.4043 20.3833 24.2427 20.7173 24.349 21.0229C24.4553 21.3286 24.7893 21.49 25.0948 21.3839L30.9726 19.3395L38.7999 22.062C38.7317 22.8102 38.5021 24.4866 37.741 26.4939C36.8132 28.941 34.8893 32.3581 30.9726 34.9071C27.0728 32.3689 25.1502 28.9703 24.2205 26.5367C23.1795 23.8118 23.1176 21.6635 23.1171 21.6421C23.1098 21.3189 22.846 21.0634 22.5189 21.0693C22.1954 21.0762 21.9386 21.344 21.9454 21.6676C21.9475 21.7616 22.0069 24.004 23.1083 26.9093C24.1243 29.5889 26.2596 33.3584 30.6629 36.0991C30.7576 36.1581 30.865 36.1876 30.9725 36.1876C31.0799 36.1876 31.1873 36.1581 31.2821 36.0991C35.6853 33.3584 37.8206 29.5889 38.8366 26.9093C39.9382 24.004 39.9975 21.7616 39.9995 21.6676C40.0051 21.4136 39.8463 21.1851 39.6064 21.1018Z" fill="#FED100"/>
<path d="M34.7822 24.4062C34.5534 24.1774 34.1824 24.1774 33.9536 24.4062L30.3308 28.0291L28.176 25.8743C27.9472 25.6454 27.5762 25.6454 27.3474 25.8743C27.1186 26.1031 27.1186 26.4741 27.3474 26.7029L29.9165 29.272C30.0309 29.3864 30.1809 29.4436 30.3308 29.4436C30.4807 29.4436 30.6307 29.3864 30.7451 29.272L34.7822 25.2348C35.0111 25.006 35.0111 24.635 34.7822 24.4062Z" fill="#FED100"/>
<path d="M29.9735 10.0045H19.969C19.3011 10.0045 18.7578 10.5479 18.7578 11.2157V13.0915C18.7578 13.7594 19.3012 14.3027 19.969 14.3027H29.9734C30.6413 14.3028 31.1847 13.7594 31.1847 13.0915V11.2157C31.1847 10.5478 30.6413 10.0045 29.9735 10.0045ZM30.0127 13.0915C30.0127 13.1133 29.9951 13.1308 29.9734 13.1308H19.969C19.9474 13.1309 19.9297 13.1133 19.9297 13.0915V11.2157C19.9297 11.1939 19.9474 11.1764 19.969 11.1764H29.9734C29.9952 11.1764 30.0127 11.194 30.0127 11.2157V13.0915Z" fill="#FED100"/>
<path d="M27.4731 15.6319H19.9697C19.6461 15.6319 19.3838 15.8942 19.3838 16.2178C19.3838 16.5414 19.6461 16.8038 19.9697 16.8038H27.4731C27.7967 16.8038 28.059 16.5414 28.059 16.2178C28.059 15.8942 27.7967 15.6319 27.4731 15.6319Z" fill="#FED100"/>
<path d="M24.3467 18.1331H19.9697C19.6461 18.1331 19.3838 18.3954 19.3838 18.719C19.3838 19.0426 19.6461 19.305 19.9697 19.305H24.3467C24.6703 19.305 24.9327 19.0426 24.9327 18.719C24.9327 18.3954 24.6703 18.1331 24.3467 18.1331Z" fill="#FED100"/>
</svg>
