<svg width="16" height="16" viewBox="0 0 16 16" fill="none" xmlns="http://www.w3.org/2000/svg">
<path d="M0.239697 7.21278L8.45245 0.0847794C8.51549 0.0304336 8.59592 0 8.6807 0H10.6045C10.7654 0 10.8393 0.199993 10.7176 0.304337L3.10481 6.9128H15.8261C15.9217 6.9128 16 6.99105 16 7.0867V8.391C16 8.48665 15.9217 8.56491 15.8261 8.56491H3.10699L10.7198 15.1734C10.8415 15.2799 10.7676 15.4777 10.6067 15.4777H8.61766C8.57635 15.4777 8.53505 15.4625 8.50462 15.4342L0.239697 8.26492C0.164442 8.19948 0.104103 8.11866 0.0627537 8.0279C0.0214043 7.93715 7.62939e-06 7.83858 7.62939e-06 7.73885C7.62939e-06 7.63912 0.0214043 7.54056 0.0627537 7.4498C0.104103 7.35905 0.164442 7.27822 0.239697 7.21278Z" fill="black" fill-opacity="0.5"/>
</svg>
