<svg width="33" height="36" viewBox="0 0 33 36" fill="none" xmlns="http://www.w3.org/2000/svg">
<path d="M28.6044 0.000700824C28.1682 -0.000767971 28.0801 0.000630881 6.65903 1.39749e-06C4.58089 1.39749e-06 2.8908 1.69079 2.8908 3.76823V19.2856C2.13311 18.5505 2.15717 18.5596 2.0845 18.5123C1.19203 17.9269 0 18.5686 0 19.6384L0.000699442 26.8664C0.000699442 27.1586 0.236616 27.3945 0.528836 27.3945C0.820357 27.3945 1.05697 27.1586 1.05697 26.8664L1.05627 19.6384C1.05627 19.4588 1.2084 19.3468 1.34919 19.3468C1.39074 19.3468 1.43228 19.3567 1.47173 19.3764C1.48278 19.3872 1.48649 19.3908 1.48677 19.391C1.54748 19.4503 1.82956 19.7257 2.93724 20.8067C3.24058 21.1013 3.94651 21.2283 4.49213 20.8707L6.82164 19.3454C6.916 19.2835 7.0442 19.2835 7.13925 19.3454C9.32307 20.7044 9.52947 21.0905 10.2068 21.0905C10.4694 21.0905 10.7244 21.0145 10.9441 20.8708L13.2736 19.3455C13.368 19.2835 13.4969 19.2835 13.5912 19.3455C15.784 20.7097 15.9831 21.0906 16.6588 21.0906C17.013 21.0906 17.3402 20.9391 17.4764 20.8067L18.9426 19.3765C19.1258 19.2849 19.3573 19.4191 19.3573 19.6384V32.41C19.3573 33.3114 19.7123 34.1403 20.296 34.7536C9.86212 34.7536 10.0988 34.7529 3.39984 34.7529C2.10073 34.7529 1.0569 33.6953 1.0569 32.41V28.9791C1.0569 28.6876 0.820287 28.451 0.528766 28.451C0.236546 28.451 0.000629538 28.6876 0.000629538 28.9791V32.41C0.000629538 34.2615 1.49698 35.8106 3.41887 35.8106H22.7122C24.6488 35.8106 26.2248 34.2346 26.2248 32.298V28.4333H29.255C30.7711 28.4333 32.0042 27.1995 32.0042 25.6833V3.40068C32.0043 1.52601 30.479 0.000700824 28.6044 0.000700824ZM25.4007 2.15934C25.0474 3.05747 25.2044 3.68668 25.1657 4.47808C25.1657 4.71274 25.168 27.4631 25.1685 32.298C25.1685 33.6523 24.0664 34.7543 22.7122 34.7543C21.7324 34.7543 20.4137 33.9345 20.4137 32.41V19.6384C20.4137 18.8954 19.8087 18.2905 19.0651 18.2905C18.715 18.2905 18.3864 18.4434 18.2503 18.5757L16.7849 20.006C16.6947 20.0489 16.5842 20.0418 16.5004 19.9869C14.308 18.6224 14.1062 18.2412 13.4328 18.2412C12.7578 18.2412 12.5554 18.6238 10.3653 19.9869C10.2709 20.0489 10.142 20.0489 10.0477 19.9869C7.85994 18.625 7.65494 18.2412 6.98013 18.2412C6.30722 18.2412 6.10277 18.6237 3.94707 19.9651V3.76823C3.94707 2.27321 5.16393 1.05634 6.65903 1.05634H26.1038C25.8123 1.3622 25.5661 1.7408 25.4007 2.15934ZM30.948 25.6833C30.948 26.6172 30.1888 27.377 29.255 27.377H26.2248C26.2248 27.3693 26.2181 3.32235 26.234 3.16127C26.2953 2.55277 26.5636 2.20403 26.5636 2.18242C27.7725 0.20892 30.948 0.994585 30.948 3.40068V25.6833Z" fill="#FED100"/>
<path d="M9.04392 13.8209H6.49396C6.20174 13.8209 5.96582 14.0575 5.96582 14.3491C5.96582 14.6406 6.20174 14.8772 6.49396 14.8772H9.04392C9.33545 14.8772 9.57206 14.6406 9.57206 14.3491C9.57206 14.0575 9.33545 13.8209 9.04392 13.8209Z" fill="#FED100"/>
<path d="M22.7061 13.8209H11.157C10.8648 13.8209 10.6289 14.0575 10.6289 14.3491C10.6289 14.6406 10.8648 14.8772 11.157 14.8772H22.7061C22.9976 14.8772 23.2342 14.6406 23.2342 14.3491C23.2342 14.0575 22.9977 13.8209 22.7061 13.8209Z" fill="#FED100"/>
<path d="M22.7061 16.2152H11.157C10.8648 16.2152 10.6289 16.4511 10.6289 16.7433C10.6289 17.0348 10.8648 17.2714 11.157 17.2714H22.7061C22.9976 17.2714 23.2342 17.0348 23.2342 16.7433C23.2343 16.4511 22.9977 16.2152 22.7061 16.2152Z" fill="#FED100"/>
<path d="M9.04392 16.2152H6.49396C6.20174 16.2152 5.96582 16.4511 5.96582 16.7433C5.96582 17.0348 6.20174 17.2714 6.49396 17.2714H9.04392C9.33545 17.2714 9.57206 17.0348 9.57206 16.7433C9.57206 16.4511 9.33545 16.2152 9.04392 16.2152Z" fill="#FED100"/>
<path d="M14.8181 6.63448L14.8182 6.63427C14.0871 6.35023 13.4758 6.21468 13.4758 5.50679C13.4758 4.85444 13.9767 4.63657 14.6232 4.63657C15.4562 4.63657 15.6533 4.99985 15.9615 4.99985C16.2937 4.99985 16.4775 4.64951 16.4775 4.40736C16.4775 3.81292 15.4099 3.64667 14.9933 3.60449V3.19288C14.9933 2.87807 14.7372 2.62201 14.4224 2.62201C14.1076 2.62201 13.8516 2.87814 13.8516 3.19288V3.67562C12.8931 3.90958 12.3674 4.57593 12.3674 5.56422C12.3674 8.07306 15.5412 7.11666 15.5412 8.98665C15.5412 9.87967 14.8964 10.0671 14.3556 10.0671C13.1893 10.0671 13.1881 9.27369 12.7209 9.27369C12.4298 9.27369 12.1953 9.59781 12.1953 9.86618C12.1953 10.343 12.8549 10.9311 13.8516 11.0939V11.4915C13.8516 11.8063 14.1077 12.0624 14.4225 12.0624C14.7373 12.0624 14.9934 11.8063 14.9934 11.4915V11.0819C16.0481 10.8754 16.6496 10.098 16.6496 8.9293C16.6496 7.39636 15.6699 6.95209 14.8181 6.63448Z" fill="#FED100"/>
</svg>
