<svg width="30" height="39" viewBox="0 0 30 39" fill="none" xmlns="http://www.w3.org/2000/svg">
<path d="M20.0403 28.4246H9.83802C9.52113 28.4246 9.26465 28.6814 9.26465 28.9983C9.26465 29.3149 9.52143 29.5717 9.83802 29.5717H20.0403C20.3572 29.5717 20.6137 29.3149 20.6137 28.9983C20.6137 28.6814 20.3572 28.4246 20.0403 28.4246Z" fill="#FED100"/>
<path d="M20.0405 30.5608H16.1837C15.8671 30.5608 15.6104 30.8175 15.6104 31.1344C15.6104 31.451 15.8671 31.7078 16.1837 31.7078H20.0405C20.3574 31.7078 20.6139 31.451 20.6139 31.1344C20.6139 30.8175 20.3574 30.5608 20.0405 30.5608Z" fill="#FED100"/>
<path d="M13.6392 30.5608H9.83802C9.52113 30.5608 9.26465 30.8175 9.26465 31.1344C9.26465 31.451 9.52143 31.7078 9.83802 31.7078H13.6392C13.9561 31.7078 14.2125 31.451 14.2125 31.1344C14.2128 30.8175 13.9561 30.5608 13.6392 30.5608Z" fill="#FED100"/>
<path d="M28.0869 16.7745H27.5061V13.0001C27.5061 12.6835 27.2493 12.4267 26.9324 12.4267C26.6155 12.4267 26.359 12.6835 26.359 13.0001V16.7745H15.9357C15.7518 16.7745 15.5763 16.6956 15.454 16.5582V16.5585L13.2277 14.0555C12.8882 13.6737 12.4002 13.4548 11.8894 13.4548H3.51938V2.12061C3.51938 1.58384 3.95618 1.14704 4.49295 1.14704H25.3852C25.9222 1.14704 26.3587 1.58384 26.3587 2.12061V10.3448C26.3587 10.6617 26.6155 10.9185 26.9324 10.9185C27.249 10.9185 27.5058 10.6617 27.5058 10.3448V2.12061C27.5058 0.951256 26.5545 0 25.3852 0H4.49295C3.32359 0 2.37234 0.951256 2.37234 2.12061V13.4548H1.79153C0.803673 13.4548 0 14.2584 0 15.2463V37.2085C0 38.1963 0.803673 39 1.79153 39H28.0869C29.0747 39 29.8784 38.1963 29.8784 37.2085V18.566C29.8784 17.5781 29.0747 16.7745 28.0869 16.7745ZM28.7314 37.2085C28.7314 37.5637 28.4425 37.853 28.0869 37.853H1.79153C1.43626 37.853 1.14704 37.5637 1.14704 37.2085V15.2466C1.14704 14.891 1.43626 14.6018 1.79153 14.6018H11.8894C12.0732 14.6018 12.2488 14.6806 12.3711 14.8178L14.597 17.3205V17.3208C14.9368 17.7025 15.4248 17.9215 15.9357 17.9215H26.7C26.7711 17.9531 26.8497 17.9709 26.9324 17.9709C27.0151 17.9709 27.0937 17.9531 27.1648 17.9215H28.0869C28.4422 17.9215 28.7314 18.2104 28.7314 18.566V37.2085Z" fill="#FED100"/>
<path d="M5.5141 5.78676H16.6259C16.9425 5.78676 17.1993 5.52998 17.1993 5.21309C17.1993 4.8962 16.9425 4.63942 16.6259 4.63942H5.5141C5.19721 4.63942 4.94043 4.8962 4.94043 5.21309C4.94043 5.52998 5.19721 5.78676 5.5141 5.78676Z" fill="#FED100"/>
<path d="M16.6259 9.77113H5.5141C5.19721 9.77113 4.94043 10.0279 4.94043 10.3448C4.94043 10.6617 5.19721 10.9185 5.5141 10.9185H16.6259C16.9425 10.9185 17.1993 10.6617 17.1993 10.3448C17.1993 10.0279 16.9425 9.77113 16.6259 9.77113Z" fill="#FED100"/>
<path d="M22.9987 5.78676C23.3153 5.78676 23.572 5.52998 23.572 5.21309C23.572 4.8962 23.3153 4.63942 22.9987 4.63942H19.3165C18.9996 4.63942 18.7432 4.8962 18.7432 5.21309C18.7432 5.52998 18.9999 5.78676 19.3165 5.78676H22.9987Z" fill="#FED100"/>
<path d="M24.2731 9.77113H19.3165C18.9996 9.77113 18.7432 10.0279 18.7432 10.3448C18.7432 10.6617 18.9999 10.9185 19.3165 10.9185H24.2731C24.59 10.9185 24.8467 10.6617 24.8467 10.3448C24.8467 10.0279 24.59 9.77113 24.2731 9.77113Z" fill="#FED100"/>
<path d="M16.6259 11.7722H15.187C14.8701 11.7722 14.6133 12.029 14.6133 12.3459C14.6133 12.6625 14.8701 12.9192 15.187 12.9192H16.6259C16.9425 12.9192 17.1993 12.6625 17.1993 12.3459C17.1993 12.029 16.9425 11.7722 16.6259 11.7722Z" fill="#FED100"/>
<path d="M24.2731 11.7722H19.3165C18.9996 11.7722 18.7432 12.029 18.7432 12.3459C18.7432 12.6625 18.9999 12.9192 19.3165 12.9192H24.2731C24.59 12.9192 24.8467 12.6625 24.8467 12.3459C24.8467 12.029 24.59 11.7722 24.2731 11.7722Z" fill="#FED100"/>
<path d="M24.2731 13.6678H19.3165C18.9996 13.6678 18.7432 13.9246 18.7432 14.2412C18.7432 14.558 18.9999 14.8148 19.3165 14.8148H24.2731C24.59 14.8148 24.8467 14.558 24.8467 14.2412C24.8467 13.9246 24.59 13.6678 24.2731 13.6678Z" fill="#FED100"/>
<path d="M22.1612 21.7944H7.71626C7.07743 21.7944 6.55762 22.3142 6.55762 22.9533V25.3453C6.55762 25.9845 7.07743 26.5043 7.71626 26.5043H9.49053C9.80712 26.5043 10.0639 26.2475 10.0639 25.9306C10.0639 25.614 9.80712 25.3572 9.49053 25.3572H7.71626C7.71001 25.3572 7.70466 25.3519 7.70466 25.3453V22.9533C7.70466 22.9468 7.71001 22.9414 7.71626 22.9414H22.1609C22.1675 22.9414 22.1729 22.9468 22.1729 22.9533V25.3453C22.1729 25.3519 22.1675 25.3572 22.1609 25.3572H12.167C11.8501 25.3572 11.5933 25.614 11.5933 25.9306C11.5933 26.2475 11.8501 26.5043 12.167 26.5043H22.1612C22.8001 26.5043 23.3199 25.9845 23.3199 25.3453V22.9533C23.3199 22.3142 22.8001 21.7944 22.1612 21.7944Z" fill="#FED100"/>
</svg>
