<svg width="30" height="39" viewBox="0 0 30 39" fill="none" xmlns="http://www.w3.org/2000/svg">
<path d="M20.0403 28.4246H9.83802C9.52113 28.4246 9.26465 28.6814 9.26465 28.9983C9.26465 29.3149 9.52143 29.5717 9.83802 29.5717H20.0403C20.3572 29.5717 20.6137 29.3149 20.6137 28.9983C20.6137 28.6814 20.3572 28.4246 20.0403 28.4246Z" fill="black"/>
<path d="M20.0403 30.5608H16.1835C15.8669 30.5608 15.6101 30.8175 15.6101 31.1344C15.6101 31.451 15.8669 31.7078 16.1835 31.7078H20.0403C20.3572 31.7078 20.6136 31.451 20.6136 31.1344C20.6136 30.8175 20.3572 30.5608 20.0403 30.5608Z" fill="black"/>
<path d="M13.6392 30.5608H9.83802C9.52113 30.5608 9.26465 30.8175 9.26465 31.1344C9.26465 31.451 9.52143 31.7078 9.83802 31.7078H13.6392C13.9561 31.7078 14.2125 31.451 14.2125 31.1344C14.2128 30.8175 13.9561 30.5608 13.6392 30.5608Z" fill="black"/>
<path d="M28.0869 16.7745H27.5061V13.0001C27.5061 12.6835 27.2493 12.4267 26.9324 12.4267C26.6155 12.4267 26.359 12.6835 26.359 13.0001V16.7745H15.9357C15.7518 16.7745 15.5763 16.6956 15.454 16.5582V16.5585L13.2277 14.0555C12.8882 13.6737 12.4002 13.4548 11.8894 13.4548H3.51938V2.12061C3.51938 1.58384 3.95618 1.14704 4.49295 1.14704H25.3852C25.9222 1.14704 26.3587 1.58384 26.3587 2.12061V10.3448C26.3587 10.6617 26.6155 10.9185 26.9324 10.9185C27.249 10.9185 27.5058 10.6617 27.5058 10.3448V2.12061C27.5058 0.951256 26.5545 0 25.3852 0H4.49295C3.32359 0 2.37234 0.951256 2.37234 2.12061V13.4548H1.79153C0.803673 13.4548 0 14.2584 0 15.2463V37.2085C0 38.1963 0.803673 39 1.79153 39H28.0869C29.0747 39 29.8784 38.1963 29.8784 37.2085V18.566C29.8784 17.5781 29.0747 16.7745 28.0869 16.7745ZM28.7314 37.2085C28.7314 37.5637 28.4425 37.853 28.0869 37.853H1.79153C1.43626 37.853 1.14704 37.5637 1.14704 37.2085V15.2466C1.14704 14.891 1.43626 14.6018 1.79153 14.6018H11.8894C12.0732 14.6018 12.2488 14.6806 12.3711 14.8178L14.597 17.3205V17.3208C14.9368 17.7025 15.4248 17.9215 15.9357 17.9215H26.7C26.7711 17.9531 26.8497 17.9709 26.9324 17.9709C27.0151 17.9709 27.0937 17.9531 27.1648 17.9215H28.0869C28.4422 17.9215 28.7314 18.2104 28.7314 18.566V37.2085Z" fill="black"/>
<path d="M5.51386 5.78676H16.6257C16.9422 5.78676 17.199 5.52998 17.199 5.21309C17.199 4.8962 16.9422 4.63942 16.6257 4.63942H5.51386C5.19697 4.63942 4.94019 4.8962 4.94019 5.21309C4.94019 5.52998 5.19697 5.78676 5.51386 5.78676Z" fill="black"/>
<path d="M16.6257 9.77113H5.51386C5.19697 9.77113 4.94019 10.0279 4.94019 10.3448C4.94019 10.6617 5.19697 10.9185 5.51386 10.9185H16.6257C16.9422 10.9185 17.199 10.6617 17.199 10.3448C17.199 10.0279 16.9422 9.77113 16.6257 9.77113Z" fill="black"/>
<path d="M22.9984 5.78676C23.315 5.78676 23.5718 5.52998 23.5718 5.21309C23.5718 4.8962 23.315 4.63942 22.9984 4.63942H19.3163C18.9994 4.63942 18.7429 4.8962 18.7429 5.21309C18.7429 5.52998 18.9997 5.78676 19.3163 5.78676H22.9984Z" fill="black"/>
<path d="M24.2728 9.77113H19.3163C18.9994 9.77113 18.7429 10.0279 18.7429 10.3448C18.7429 10.6617 18.9997 10.9185 19.3163 10.9185H24.2728C24.5897 10.9185 24.8465 10.6617 24.8465 10.3448C24.8465 10.0279 24.5897 9.77113 24.2728 9.77113Z" fill="black"/>
<path d="M16.6256 11.7722H15.1867C14.8698 11.7722 14.613 12.029 14.613 12.3459C14.613 12.6625 14.8698 12.9192 15.1867 12.9192H16.6256C16.9422 12.9192 17.199 12.6625 17.199 12.3459C17.199 12.029 16.9422 11.7722 16.6256 11.7722Z" fill="black"/>
<path d="M24.2728 11.7722H19.3163C18.9994 11.7722 18.7429 12.029 18.7429 12.3459C18.7429 12.6625 18.9997 12.9192 19.3163 12.9192H24.2728C24.5897 12.9192 24.8465 12.6625 24.8465 12.3459C24.8465 12.029 24.5897 11.7722 24.2728 11.7722Z" fill="black"/>
<path d="M24.2728 13.6678H19.3163C18.9994 13.6678 18.7429 13.9246 18.7429 14.2412C18.7429 14.5581 18.9997 14.8148 19.3163 14.8148H24.2728C24.5897 14.8148 24.8465 14.5581 24.8465 14.2412C24.8465 13.9246 24.5897 13.6678 24.2728 13.6678Z" fill="black"/>
<path d="M22.1617 21.7944H7.71675C7.07792 21.7944 6.55811 22.3142 6.55811 22.9533V25.3453C6.55811 25.9844 7.07792 26.5043 7.71675 26.5043H9.49102C9.80761 26.5043 10.0644 26.2475 10.0644 25.9306C10.0644 25.614 9.80761 25.3572 9.49102 25.3572H7.71675C7.7105 25.3572 7.70515 25.3519 7.70515 25.3453V22.9533C7.70515 22.9468 7.7105 22.9414 7.71675 22.9414H22.1614C22.168 22.9414 22.1733 22.9468 22.1733 22.9533V25.3453C22.1733 25.3519 22.168 25.3572 22.1614 25.3572H12.1674C11.8506 25.3572 11.5938 25.614 11.5938 25.9306C11.5938 26.2475 11.8506 26.5043 12.1674 26.5043H22.1617C22.8006 26.5043 23.3204 25.9844 23.3204 25.3453V22.9533C23.3204 22.3142 22.8006 21.7944 22.1617 21.7944Z" fill="black"/>
</svg>
