<svg width="171" height="26" viewBox="0 0 171 26" fill="none" xmlns="http://www.w3.org/2000/svg">
<g clip-path="url(#clip0)">
<path d="M8.60825 0.655457C17.3891 0.655457 22.0492 6.24873 22.0492 12.9781C22.0492 19.6639 17.0871 25.3008 8.52195 25.3008H0V0.655457H8.60825ZM8.24148 19.6639C13.3762 19.6639 15.5553 16.6269 15.5553 12.9781C15.5553 9.04537 13.2036 6.29243 8.24148 6.29243H6.38607V19.6639H8.24148Z" fill="white"/>
<path d="M23.3008 18.8555H30.2262V25.279H23.3008V18.8555Z" fill="white"/>
<path d="M34.5843 6.18319H29.126V0.655457H46.4504V6.18319H40.992V25.3008H34.5843V6.18319Z" fill="white"/>
<path d="M68.7795 25.3008H61.3578L55.1875 15.9714H54.5403V25.3008H48.1758V0.655457H56.0936C63.3643 0.655457 65.9101 3.91092 65.9101 8.34621C65.9101 11.8857 63.9036 14.0924 61.3794 14.9882L68.7795 25.3008ZM56.3094 5.68067H54.5618V11.5798H56.3525C58.1001 11.5798 59.3945 10.5748 59.3945 8.69579C59.373 6.83865 58.2727 5.68067 56.3094 5.68067Z" fill="white"/>
<path d="M76.2446 0.655457H82.2639L90.829 25.3008H84.4213L82.8464 20.3412H74.9285L73.3536 25.3008H67.0322L76.2446 0.655457ZM76.2877 16.037H81.4872L79.8044 10.7714C79.3513 9.3731 79.2434 8.82688 78.9845 7.77814H78.8119C78.5315 8.87058 78.3589 9.61344 77.949 10.8151L76.2877 16.037Z" fill="white"/>
<path d="M100.58 0.655457C109.361 0.655457 114.021 6.24873 114.021 12.9781C114.021 19.6639 109.059 25.3008 100.494 25.3008H91.9717V0.655457H100.58ZM100.213 19.6639C105.348 19.6639 107.527 16.6269 107.527 12.9781C107.527 9.04537 105.175 6.29243 100.213 6.29243H98.3578V19.6639H100.213Z" fill="white"/>
<path d="M115.964 0.655457H122.35V25.3008H115.964V0.655457Z" fill="white"/>
<path d="M129.965 10.1597C130.008 11.2084 130.116 13.5462 130.116 14.5731V25.3008H124.766V0.655457H130.159L136.222 10.4874C138.12 13.5244 138.573 14.8134 139.221 16.0151H139.328C139.285 14.9227 139.221 13.0218 139.221 12.0386V0.655457H144.571V25.3008H139.221L134.043 16.9546C131.518 12.8689 130.828 11.3176 130.116 10.1597H129.965Z" fill="white"/>
<path d="M171 11.2084V12.9126C171 18.3966 167.721 26 158.487 26C151.065 26 145.779 20.516 145.779 13.2185C145.779 5.30924 151.173 0 158.444 0C164.182 0 168.648 2.81849 170.331 7.97479H163.449C162.456 6.24874 160.709 5.44034 158.659 5.44034C155.509 5.44034 152.23 7.82185 152.23 13.1092C152.23 17.8504 154.905 20.5597 158.94 20.5597C161.766 20.5597 163.794 18.6151 164.182 16.4084H157.192V11.2521H171V11.2084Z" fill="white"/>
</g>
<defs>
<clipPath id="clip0">
<rect width="171" height="26" fill="white"/>
</clipPath>
</defs>
</svg>
