<svg width="37" height="36" viewBox="0 0 37 36" fill="none" xmlns="http://www.w3.org/2000/svg">
<path d="M5.37032 5.90737L7.03336 2.34703C7.15662 2.08322 7.47037 1.96931 7.73441 2.09243C7.9983 2.21569 8.11228 2.52956 7.98902 2.79344L7.313 4.24062C10.5558 1.49632 14.622 0 18.9188 0C23.727 0 28.2474 1.87235 31.6473 5.2721C34.583 8.20765 36.4243 12.0955 36.8319 16.2195C37.2339 20.2869 36.2342 24.4024 34.017 27.808C33.9159 27.9632 33.7469 28.0476 33.5745 28.0476C33.4759 28.0476 33.3761 28.02 33.2873 27.9621C33.0432 27.8032 32.9741 27.4766 33.1331 27.2325C35.2199 24.0272 36.1608 20.1528 35.7823 16.3233C35.3986 12.4413 33.6653 8.7814 30.9016 6.01783C27.7009 2.81728 23.4453 1.05469 18.9188 1.05469C14.8694 1.05469 11.0375 2.46635 7.98304 5.05526L9.53386 4.66889C9.81639 4.5983 10.1026 4.77049 10.173 5.05308C10.2434 5.33566 10.0714 5.62183 9.78882 5.69222L5.9756 6.64221C5.93327 6.65276 5.89051 6.65789 5.84811 6.65789C5.69279 6.65789 5.54259 6.58905 5.44106 6.4658C5.31182 6.30886 5.28425 6.09159 5.37032 5.90737Z" fill="#FED100"/>
<path d="M3.82136 8.19208C3.98034 7.94795 4.30696 7.87897 4.55103 8.03788C4.79516 8.19679 4.86421 8.52346 4.70523 8.76751C2.61833 11.9729 1.6775 15.8472 2.05601 19.6768C2.43972 23.5587 4.17308 27.2186 6.93677 29.9822C10.1375 33.1827 14.393 34.9453 18.9195 34.9453C22.9689 34.9453 26.8008 33.5337 29.8553 30.9448L28.3045 31.3311C28.022 31.4016 27.7357 31.2295 27.6653 30.947C27.5949 30.6644 27.7669 30.3782 28.0495 30.3078L31.8627 29.3578C32.06 29.3087 32.268 29.3773 32.3973 29.5342C32.5265 29.6912 32.5541 29.9084 32.468 30.0927L30.805 33.653C30.7154 33.8447 30.5253 33.9573 30.3268 33.9572C30.2521 33.9572 30.1761 33.9413 30.104 33.9076C29.8401 33.7843 29.7261 33.4705 29.8494 33.2066L30.5255 31.7594C27.2825 34.5037 23.2163 36 18.9195 36C14.1113 36 9.59091 34.1277 6.191 30.7279C3.25532 27.7924 1.41403 23.9045 1.00641 19.7805C0.604412 15.7132 1.60409 11.5977 3.82136 8.19208Z" fill="#FED100"/>
<path d="M10.6813 16.5844C10.766 16.4021 10.9468 16.2839 11.1477 16.2794L17.9711 16.1266L15.8835 6.54748C15.8314 6.30848 15.9505 6.06513 16.1711 5.95952C16.3918 5.85398 16.656 5.91389 16.8094 6.10437L27.0893 18.8626C27.2153 19.019 27.2416 19.2335 27.1569 19.4157C27.0722 19.598 26.8914 19.7162 26.6905 19.7207L19.8671 19.8735L19.9143 20.0904C19.9763 20.375 19.7959 20.656 19.5113 20.718C19.2269 20.78 18.9458 20.5996 18.8838 20.315L18.7002 19.4729C18.6667 19.319 18.7037 19.1582 18.8011 19.0344C18.8986 18.9107 19.0462 18.8369 19.2037 18.8334L25.5959 18.6902L17.3897 8.50554L19.1379 16.5271C19.1714 16.6811 19.1344 16.8419 19.037 16.9656C18.9395 17.0894 18.7919 17.1631 18.6344 17.1666L12.2422 17.3099L20.4484 27.4946L19.3639 22.5182C19.3019 22.2336 19.4824 21.9526 19.767 21.8906C20.0514 21.8288 20.3326 22.0091 20.3946 22.2936L21.9547 29.4527C22.0068 29.6917 21.8877 29.9351 21.6671 30.0406C21.5942 30.0755 21.5165 30.0923 21.4397 30.0923C21.284 30.0923 21.1315 30.0233 21.0288 29.8958L10.7489 17.1375C10.6229 16.9811 10.5966 16.7666 10.6813 16.5844Z" fill="#FED100"/>
</svg>
