<svg width="25" height="25" viewBox="0 0 25 25" fill="none" xmlns="http://www.w3.org/2000/svg">
<circle cx="12.5" cy="12.5" r="12.25" stroke="white" stroke-opacity="0.7" stroke-width="0.5"/>
<path d="M11.267 17.8572V16.1128H12.8661V17.8572H11.267ZM9.97245 10.0677H8.57129C8.57129 10.0276 8.57129 9.9925 8.57129 9.96242C8.57129 9.92232 8.57129 9.88222 8.57129 9.84212C8.57129 9.74187 8.57129 9.63661 8.57129 9.52633C8.58144 9.41606 8.59667 9.3108 8.61698 9.21054C8.69821 8.50879 8.99265 7.8722 9.50032 7.30077C10.0181 6.71932 10.9218 6.42859 12.2113 6.42859C13.3383 6.42859 14.2013 6.69927 14.8003 7.24062C15.4095 7.77195 15.7141 8.46368 15.7141 9.31581C15.7141 9.82709 15.6177 10.2632 15.4248 10.6241C15.2319 10.985 14.9628 11.3308 14.6176 11.6617C14.5364 11.7419 14.445 11.8271 14.3434 11.9173C14.2419 11.9975 14.1404 12.0827 14.0388 12.173C13.9779 12.2231 13.9119 12.2782 13.8409 12.3384C13.7799 12.3885 13.719 12.4436 13.6581 12.5038C13.4043 12.7143 13.1758 12.9649 12.9728 13.2557C12.7697 13.5364 12.6682 13.8822 12.6682 14.2933V14.6241H11.4954C11.4853 14.5439 11.4802 14.4687 11.4802 14.3985C11.4802 14.3183 11.4802 14.2431 11.4802 14.173C11.4802 13.5714 11.5868 13.1003 11.8 12.7594C12.0234 12.4186 12.2671 12.1328 12.5311 11.9023C12.5514 11.8822 12.5717 11.8672 12.592 11.8572C12.6123 11.8371 12.6326 11.8171 12.6529 11.797C12.7138 11.7469 12.7748 11.6968 12.8357 11.6466C12.8966 11.5865 12.9626 11.5313 13.0337 11.4812C13.3484 11.2105 13.6378 10.9098 13.9018 10.579C14.1658 10.2481 14.2978 9.84714 14.2978 9.37596C14.2978 9.31581 14.2927 9.26067 14.2825 9.21054C14.2825 9.15039 14.2775 9.09526 14.2673 9.04513C14.1962 8.6742 13.9982 8.33836 13.6733 8.03761C13.3484 7.72683 12.856 7.57145 12.196 7.57145C11.3939 7.57145 10.8355 7.77696 10.5207 8.18799C10.2161 8.58899 10.0384 9.03009 9.98768 9.5113C9.98768 9.58147 9.9826 9.65165 9.97245 9.72182C9.97245 9.78197 9.97245 9.84212 9.97245 9.90227C9.97245 9.92232 9.97245 9.94739 9.97245 9.97746C9.97245 10.0075 9.97245 10.0376 9.97245 10.0677Z" fill="white"/>
</svg>
